<svg xmlns="http://www.w3.org/2000/svg" xmlns:xlink="http://www.w3.org/1999/xlink" width="145.962" height="95" viewBox="0 0 145.962 95"><defs><clipPath id="a"><rect width="145.962" height="95" fill="none"/></clipPath></defs><g clip-path="url(#a)"><path d="M34.663.544c-.578.136-2.837.614-3.415.761A48.284,48.284,0,0,0,18.241,6.82l30.389,40.4Z" transform="translate(4.864 0.145)" fill="#1374b1"/><path d="M21.372,5.5A48.713,48.713,0,0,0,8.057,17.549c-.528.688-1.044,1.462-1.559,2.113L51.761,45.9Z" transform="translate(1.733 1.466)" fill="#40a6dd"/><path d="M53.483,42.915,8.219,16.69A47.915,47.915,0,0,0,1.71,30.766,62.319,62.319,0,0,0,.039,42.792Z" transform="translate(0.01 4.451)" fill="#2956a0"/><path d="M44.853.148A63.233,63.233,0,0,0,31.206.689L45.172,47.366,58.082,3.035A80.319,80.319,0,0,0,44.853.148" transform="translate(8.322 0)" fill="#32b099"/><path d="M42.232,45.291l44.932-30.2-8.746-4.532L72.609,7.778Z" transform="translate(11.262 2.074)" fill="#238044"/><path d="M72.609,9.213A74.424,74.424,0,0,0,65.24,5.971c-4.423-1.794-5.9-2.212-10.05-3.575L42.231,46.727Z" transform="translate(11.262 0.639)" fill="#269595"/><path d="M112.217,28.914c-9.359-6.007-17.675-10.907-25.058-14.887-1.473-.8-2.972-1.548-4.373-2.272L42.251,44.231Z" transform="translate(11.267 3.134)" fill="#319b52"/><path d="M134.705,40.557Q124.559,33.31,115.629,27.5l-3.4-2.2L42.212,40.618Z" transform="translate(11.257 6.747)" fill="#ffea00"/><path d="M112.222,27.6l-1.388-.884-2.4-1.511-2.812-1.768L102.3,21.395l-4.2-2.505-3.784-2.2L42.232,42.915Z" transform="translate(11.262 4.451)" fill="#89bd54"/><path d="M42.232,37.394l44.92,30.192-8.734,4.545-5.772,2.8Z" transform="translate(11.262 9.972)" fill="#de161f"/><path d="M112.222,52.711c-6.473,4.164-12.382,7.751-17.9,10.92-2.456,1.4-4.913,2.7-7.112,3.93-1.473.8-2.973,1.548-4.36,2.26L42.232,37.393Z" transform="translate(11.262 9.971)" fill="#e85f32"/><path d="M134.705,37.345c-6.768,4.815-13.119,9.286-19.076,13.18l-3.4,2.2L42.212,37.406Z" transform="translate(11.257 9.959)" fill="#f9bc0b"/><path d="M112.222,52.711l-5,3.169L102.3,58.914,98.01,61.469l-3.7,2.162L42.232,37.393Z" transform="translate(11.262 9.972)" fill="#f29d5a"/><path d="M34.7,84.205c-.589-.136-2.85-.6-3.428-.761a47.628,47.628,0,0,1-13.02-5.515L48.627,37.393Z" transform="translate(4.867 9.971)" fill="#e42175"/><path d="M21.386,77.879A48.58,48.58,0,0,1,8.059,65.78c-.516-.688-1.031-1.388-1.523-2.113L51.751,37.394Z" transform="translate(1.743 9.972)" fill="#772680"/><path d="M53.494,37.394,8.23,63.717A47.955,47.955,0,0,1,1.695,49.591,63.333,63.333,0,0,1,0,37.467Z" transform="translate(0 9.972)" fill="#552673"/><path d="M44.847,84.807c-1.117.11-2.628.222-2.628.222H39.872a49.111,49.111,0,0,1-8.6-.871l13.88-46.763L56.627,82.266l-.761.256A54.009,54.009,0,0,1,44.81,84.807" transform="translate(8.339 9.972)" fill="#d75871"/><path d="M72.683,74.907a74.225,74.225,0,0,1-7.492,3.243c-4.422,1.794-7.371,2.74-11.485,4.115L42.232,37.393Z" transform="translate(11.262 9.971)" fill="#e3342a"/><path d="M42.232,37.394,82.853,69.822c0-.835-2.223-10.784-2.6-13.291Z" transform="translate(11.262 9.972)" fill="#e54420"/><path d="M42.232,37.394,65.447,66.038c6.007,1.155,13.3,3.01,17.405,3.784Z" transform="translate(11.262 9.972)" fill="#e22923"/><path d="M18.26,77.867,48.625,37.394,38.957,69.81Z" transform="translate(4.869 9.972)" fill="#e13d8b"/><path d="M48.625,37.4,22.216,52.77C21.9,54.846,19.685,72.952,18.26,77.89L48.625,37.355" transform="translate(4.869 9.961)" fill="#b63280"/><path d="M.029,37.394H53.486L27.077,52.76Z" transform="translate(0.008 9.972)" fill="#6d247a"/><path d="M34.6,69.809l9.667-32.415L55.74,82.264Z" transform="translate(9.227 9.972)" fill="#e42175"/><path d="M65.447,66.038,42.232,37.394,53.7,82.264Z" transform="translate(11.262 9.972)" fill="#d0161a"/><path d="M18.241,5.5,48.629,45.9,38.4,11.727Z" transform="translate(4.864 1.466)" fill="#2ba7da"/><path d="M18.241,5.5c1.474,11.116,4.312,25.3,4.312,25.3L48.63,45.9Z" transform="translate(4.864 1.466)" fill="#2295bd"/><path d="M.029,40.574H53.486L27.408,25.466Z" transform="translate(0.008 6.791)" fill="#223b7b"/><path d="M34.154,12.554,44.386,46.727,57.3,2.4Z" transform="translate(9.108 0.639)" fill="#28a294"/><path d="M82.791,11.754,65.558,15.439,42.232,44.231Z" transform="translate(11.262 3.134)" fill="#319b52"/><path d="M55.118,2.4,65.534,17.934,42.319,46.628Z" transform="translate(11.285 0.639)" fill="#32b099"/><path d="M82.791,11.754,42.232,44.231,81.084,24.664Z" transform="translate(11.262 3.134)" fill="#2fa85f"/><path d="M98.273,40.582c2.076-2.456,11.89-12.492,13.954-15.28L42.212,40.619Z" transform="translate(11.257 6.747)" fill="gold"/><path d="M112.222,26.2l-31.138-4.25L42.232,41.514Z" transform="translate(11.262 5.852)" fill="#6fb556"/><path d="M98.273,37.365c4.594,4.692,11.644,13.156,13.954,15.355L42.212,37.4Z" transform="translate(11.257 9.964)" fill="#f5a617"/><path d="M112.222,52.711l-31.973,3.82L42.232,37.393Z" transform="translate(11.262 9.972)" fill="#ef8d33"/><path d="M15.987,54.708H14.059v7.369a.234.234,0,0,1-.222.246h-1.08a.233.233,0,0,1-.222-.244h0V54.708H10.608a.221.221,0,0,1-.222-.222v-.958a.221.221,0,0,1,.222-.22h5.38a.209.209,0,0,1,.222.2v.983a.21.21,0,0,1-.2.222h-.025" transform="translate(2.77 14.215)" fill="#fff"/><path d="M20.4,61.821H19.394a.234.234,0,0,1-.222-.244h0v-.282a2.636,2.636,0,0,1-1.732.6,1.735,1.735,0,0,1-1.339-.5,3.18,3.18,0,0,1-.552-2.188V55.262A.245.245,0,0,1,15.77,55h1.007a.245.245,0,0,1,.222.258V59.2c0,.6,0,.946.246,1.155a.962.962,0,0,0,.688.222,2.907,2.907,0,0,0,1.229-.491V55.262a.245.245,0,0,1,.22-.258h1.007a.245.245,0,0,1,.222.258v6.313a.234.234,0,0,1-.22.246h0" transform="translate(4.141 14.668)" fill="#fff"/><path d="M25.311,61.835H24.3a.247.247,0,0,1-.222-.258v-3.93c0-1.056-.086-1.352-.934-1.352a2.454,2.454,0,0,0-1.227.431v4.913a.246.246,0,0,1-.222.257H20.693a.245.245,0,0,1-.222-.257V55.263a.234.234,0,0,1,.22-.246h.946a.233.233,0,0,1,.222.244h0v.258a2.7,2.7,0,0,1,1.794-.566c1.585,0,1.9,1.229,1.9,2.716V61.6a.245.245,0,0,1-.222.257" transform="translate(5.459 14.654)" fill="#fff"/><path d="M26.667,54.622H25.6a.245.245,0,0,1-.22-.246V53.32a.245.245,0,0,1,.22-.246h1.069a.234.234,0,0,1,.222.246v1.056a.234.234,0,0,1-.22.246h0m0,7.714h-1.02a.246.246,0,0,1-.209-.258V55.764a.234.234,0,0,1,.209-.246h1.02a.247.247,0,0,1,.222.246v6.313a.259.259,0,0,1-.222.258" transform="translate(6.767 14.153)" fill="#fff"/><path d="M29.551,61.936a8.193,8.193,0,0,1-1.977-.246.268.268,0,0,1-.2-.282V60.7a.2.2,0,0,1,.184-.2c.528.062,1.524.123,1.854.123.676,0,.774-.246.774-.565s-.123-.38-.479-.614L28.2,58.423a2.039,2.039,0,0,1-.921-1.671c0-1.229.7-1.806,2.089-1.806a7.353,7.353,0,0,1,1.952.233.27.27,0,0,1,.209.282v.726c0,.147-.073.22-.184.22a17.821,17.821,0,0,0-1.818-.134c-.528,0-.763.122-.763.5,0,.2.172.308.442.491l1.438.97A1.991,1.991,0,0,1,31.7,60.081a1.88,1.88,0,0,1-1.859,1.9,1.851,1.851,0,0,1-.29-.02" transform="translate(7.274 14.652)" fill="#fff"/><path d="M32.8,54.622H31.758a.246.246,0,0,1-.222-.246V53.32a.246.246,0,0,1,.222-.246h1.08a.233.233,0,0,1,.209.246v1.056a.233.233,0,0,1-.209.246m0,7.714h-1.08a.245.245,0,0,1-.222-.258V55.764a.234.234,0,0,1,.22-.246h1.008a.232.232,0,0,1,.22.244h0v6.313a.245.245,0,0,1-.22.258" transform="translate(8.41 14.153)" fill="#fff"/><path d="M38.512,59H34.937c0,.7.271,1.523,1.315,1.523a19.021,19.021,0,0,0,2.027-.123.186.186,0,0,1,.185.184v.8c0,.2,0,.282-.22.319a8.789,8.789,0,0,1-2.138.209,2.664,2.664,0,0,1-2.678-2.652,2.559,2.559,0,0,1,.025-.381v-.9c0-1.88.958-3.07,2.641-3.07s2.6,1.227,2.6,3.07v.675c0,.2,0,.308-.209.308m-1.229-1.229c0-.934-.479-1.474-1.155-1.474s-1.227.528-1.227,1.474h2.383Z" transform="translate(8.914 14.642)" fill="#fff"/><path d="M45.573,54.708H43.645v7.369a.234.234,0,0,1-.222.246h-1.08a.233.233,0,0,1-.222-.244h0V54.708H40.205a.222.222,0,0,1-.233-.209v-.97a.222.222,0,0,1,.22-.222h5.381a.207.207,0,0,1,.209.208v.97a.21.21,0,0,1-.2.222h-.013" transform="translate(10.659 14.215)" fill="#fff"/><path d="M50.02,59H46.433c0,.7.271,1.523,1.327,1.523a19.382,19.382,0,0,0,2.027-.123.185.185,0,0,1,.2.171v.812c0,.2,0,.282-.222.319a8.906,8.906,0,0,1-2.137.209,2.666,2.666,0,0,1-2.679-2.652,2.741,2.741,0,0,1,.025-.381v-.9c0-1.88.946-3.07,2.63-3.07a2.744,2.744,0,0,1,2.713,2.775,2.64,2.64,0,0,1-.024.332v.638c0,.2-.061.308-.22.308m-1.229-1.229c0-.934-.479-1.474-1.155-1.474s-1.167.528-1.167,1.474Z" transform="translate(11.986 14.642)" fill="#fff"/><path d="M51.164,62.32h-.983a.245.245,0,0,1-.22-.258v-8.7a.235.235,0,0,1,.22-.234H51.2a.223.223,0,0,1,.209.233h0v8.7a.235.235,0,0,1-.206.258h0" transform="translate(13.323 14.169)" fill="#fff"/><path d="M56.922,58.985H53.36c0,.7.27,1.523,1.326,1.523a19.125,19.125,0,0,0,2.015-.123.2.2,0,0,1,.208.184v.8c0,.2,0,.282-.234.319a8.779,8.779,0,0,1-2.137.209,2.666,2.666,0,0,1-2.679-2.652,2.741,2.741,0,0,1,.025-.381v-.9a2.657,2.657,0,0,1,2.28-2.987,2.625,2.625,0,0,1,.423-.023c1.744,0,2.616,1.229,2.616,3.07v.614c0,.2-.073.308-.22.308M55.755,57.72c0-.934-.479-1.474-1.155-1.474s-1.227.528-1.227,1.474h2.383Z" transform="translate(13.829 14.655)" fill="#fff"/><path d="M60.533,61.779a5.51,5.51,0,0,1-1.425.16c-1.425,0-2.456-.97-2.456-2.936v-1.13c0-1.965,1.08-2.935,2.456-2.935a5.456,5.456,0,0,1,1.425.16c.184,0,.222.123.222.319v.774c0,.123-.086.171-.2.171a10.7,10.7,0,0,0-1.424-.073c-.517,0-1.056.319-1.056,1.573v1.13c0,1.227.54,1.572,1.056,1.572a10.49,10.49,0,0,0,1.424-.073c.111,0,.2,0,.2.172v.785c0,.2,0,.271-.222.319" transform="translate(15.107 14.65)" fill="#fff"/><path d="M63.116,61.933a2.641,2.641,0,0,1-2.654-2.627,2.576,2.576,0,0,1,.025-.383V57.94a2.641,2.641,0,0,1,2.275-2.961,2.355,2.355,0,0,1,.353-.023c1.72,0,2.617,1.229,2.617,3v.983c0,1.719-.9,3.01-2.617,3.01m1.229-3.993c0-.983-.418-1.621-1.229-1.621s-1.227.638-1.227,1.621v.983c0,.983.405,1.621,1.227,1.621s1.229-.638,1.229-1.621Z" transform="translate(16.123 14.655)" fill="#fff"/><path d="M73.093,61.835h-1.02a.245.245,0,0,1-.22-.258v-4.1c0-.934-.172-1.167-.787-1.167a2.144,2.144,0,0,0-1.02.3v4.974a.245.245,0,0,1-.209.258h-1.02a.245.245,0,0,1-.22-.258v-4.1c0-.934-.136-1.167-.761-1.167a2.213,2.213,0,0,0-1.008.394v4.912a.245.245,0,0,1-.22.258H65.6a.245.245,0,0,1-.222-.258v-6.35a.233.233,0,0,1,.22-.246h.959a.233.233,0,0,1,.209.246v.258a2.63,2.63,0,0,1,1.585-.566,1.462,1.462,0,0,1,1.229.554,3.18,3.18,0,0,1,1.878-.554c1.487,0,1.818,1.131,1.818,2.543v4.1a.243.243,0,0,1-.208.257" transform="translate(17.434 14.654)" fill="#fff"/><path d="M10.5,23.021v4.521H22.785V53.19c0,5,3.108,6.78,6.67,6.78h5.159V27.542h6.142a6.855,6.855,0,0,0,6.608-6.3V16.72H17.172A6.449,6.449,0,0,0,10.5,22.943c0,.025,0,.052,0,.079" transform="translate(2.801 4.458)" fill="#fff"/><path d="M49.2,16.73a6.437,6.437,0,0,0-6.679,6.184c0,.035,0,.07,0,.105V27.54H54.806V53.187c0,5,3.12,6.78,6.682,6.78h5.159V27.54h6.142a6.868,6.868,0,0,0,6.608-6.3V16.73Z" transform="translate(11.339 4.46)" fill="#fff"/></g></svg>